<?xml version="1.0" standalone="no"?>
<!DOCTYPE svg PUBLIC "-//W3C//DTD SVG 20010904//EN"
 "http://www.w3.org/TR/2001/REC-SVG-20010904/DTD/svg10.dtd">
<svg version="1.0" xmlns="http://www.w3.org/2000/svg"
 width="512.000000pt" height="512.000000pt" viewBox="0 0 512.000000 512.000000"
 preserveAspectRatio="xMidYMid meet">

<g transform="translate(0.000000,512.000000) scale(0.100000,-0.100000)"
fill="#000000" stroke="none">
<path d="M1525 5109 c-477 -45 -821 -185 -1075 -439 -226 -226 -357 -512 -423
-925 -22 -138 -22 -152 -22 -1180 0 -1140 -1 -1125 62 -1390 139 -591 504
-961 1091 -1104 270 -66 270 -66 1402 -66 947 0 1035 1 1155 19 591 84 977
330 1197 761 92 181 147 364 185 620 16 109 18 211 18 1160 0 1028 0 1042 -22
1180 -66 413 -197 699 -423 925 -258 258 -598 395 -1090 439 -138 13 -1920 12
-2055 0z m1179 -768 c72 -44 162 -103 200 -132 312 -236 525 -577 617 -984
l23 -100 3 -1092 4 -1093 -991 0 -990 0 0 963 c1 529 5 1021 10 1092 16 242
69 438 173 642 109 216 260 404 441 550 74 59 349 233 370 233 4 0 67 -36 140
-79z m964 -3583 l-3 -63 -1107 -3 c-1047 -2 -1108 -1 -1116 15 -7 15 -8 54 -3
106 1 4 503 7 1116 7 l1116 0 -3 -62z"/>
<path d="M2451 4242 c-62 -37 -144 -92 -183 -122 -90 -71 -220 -206 -296 -308
-114 -154 -227 -409 -266 -602 -33 -164 -37 -295 -34 -1235 l3 -930 57 -3 57
-3 4 1083 c3 1213 -3 1118 77 1284 66 137 163 242 302 326 212 129 486 142
715 32 90 -43 209 -136 268 -212 54 -68 126 -211 151 -302 17 -60 18 -142 22
-1137 l3 -1073 59 0 60 0 0 1003 c0 837 -3 1017 -15 1092 -81 496 -361 885
-826 1148 l-46 26 -112 -67z"/>
<path d="M2513 3763 c-18 -2 -33 -8 -33 -12 0 -4 17 -24 38 -44 l38 -37 39 40
c21 22 37 41 34 44 -8 7 -84 13 -116 9z"/>
<path d="M2345 3707 c-7 -17 -19 -59 -26 -92 l-12 -61 63 -109 c35 -61 75
-128 89 -150 14 -22 26 -42 27 -43 2 -2 12 -1 23 3 20 6 21 13 21 182 l0 175
-62 64 c-72 75 -101 83 -123 31z"/>
<path d="M2653 3678 l-63 -64 0 -176 c0 -178 6 -207 35 -177 7 8 50 78 95 156
l81 141 -23 89 c-30 114 -41 116 -125 31z"/>
<path d="M2217 3675 c-21 -12 -46 -30 -55 -38 -14 -15 -13 -17 11 -26 54 -21
80 -18 87 9 25 92 23 95 -43 55z"/>
<path d="M2835 3668 c13 -59 25 -80 40 -75 7 3 32 11 55 17 22 6 38 15 35 21
-9 13 -107 69 -123 69 -10 0 -12 -9 -7 -32z"/>
<path d="M2063 3553 c-3 -9 -1 -37 6 -62 34 -129 17 -110 181 -206 134 -77
180 -95 180 -67 0 9 -165 291 -178 304 -9 9 -146 48 -170 48 -7 0 -15 -7 -19
-17z"/>
<path d="M2930 3549 l-76 -20 -88 -150 c-82 -140 -96 -179 -64 -179 8 0 79 38
158 84 l145 83 23 79 c37 129 30 136 -98 103z"/>
<path d="M1962 3426 c-30 -51 -39 -76 -26 -76 3 0 25 5 50 11 29 8 44 17 44
28 0 26 -20 91 -28 91 -4 0 -22 -24 -40 -54z"/>
<path d="M3090 3439 c-6 -22 -13 -46 -16 -54 -4 -10 10 -18 47 -29 64 -19 69
-20 69 -3 0 17 -69 127 -80 127 -5 0 -14 -18 -20 -41z"/>
<path d="M1970 3296 c-65 -19 -75 -24 -78 -46 -2 -19 11 -39 55 -82 l58 -57
170 -1 c94 0 176 -1 183 0 6 0 12 9 12 19 0 14 -39 42 -149 105 -82 47 -155
86 -162 85 -8 -1 -48 -11 -89 -23z"/>
<path d="M2945 3264 c-213 -122 -213 -123 -208 -144 5 -19 13 -20 182 -20
l177 0 68 69 c41 42 67 75 63 83 -5 14 -146 58 -183 58 -11 0 -55 -21 -99 -46z"/>
<path d="M2502 3173 c-85 -42 -82 -167 5 -208 33 -16 41 -16 77 -4 46 16 86
67 86 108 0 54 -65 121 -117 121 -10 0 -33 -8 -51 -17z"/>
<path d="M1870 3075 c0 -41 4 -75 8 -75 10 0 72 63 72 73 0 10 -61 77 -71 77
-5 0 -9 -34 -9 -75z"/>
<path d="M3197 3112 c-20 -21 -37 -42 -37 -48 0 -15 75 -85 83 -78 10 10 9
164 -1 164 -4 0 -25 -17 -45 -38z"/>
<path d="M1942 2977 c-82 -87 -79 -98 39 -127 l89 -22 150 87 c202 117 201
119 -36 123 l-180 2 -62 -63z"/>
<path d="M2747 3033 c-22 -21 4 -44 134 -120 77 -46 151 -83 162 -83 32 0 168
37 179 48 15 15 -2 40 -70 105 l-61 57 -169 0 c-93 0 -172 -3 -175 -7z"/>
<path d="M2360 2928 c-19 -12 -84 -50 -145 -86 -60 -35 -112 -66 -114 -68 -10
-9 -50 -178 -44 -187 7 -11 59 -5 135 17 l57 17 86 145 c101 169 108 210 25
162z"/>
<path d="M2684 2926 c-3 -7 34 -79 81 -159 95 -160 82 -149 214 -182 35 -9 66
-14 68 -11 6 6 -34 175 -45 193 -10 15 -283 173 -299 173 -8 0 -16 -6 -19 -14z"/>
<path d="M2472 2878 c-5 -7 -46 -75 -90 -150 l-80 -138 21 -82 c11 -46 24 -89
30 -95 19 -25 45 -12 105 51 l62 64 0 175 c0 150 -2 176 -16 181 -21 8 -20 8
-32 -6z"/>
<path d="M2593 2883 c-10 -3 -13 -49 -13 -182 l0 -177 69 -68 c88 -87 98 -84
129 43 l22 91 -72 122 c-79 137 -106 178 -116 177 -4 0 -13 -3 -19 -6z"/>
<path d="M1920 2794 c0 -16 65 -117 77 -121 7 -3 16 13 22 34 17 59 14 70 -18
76 -16 3 -40 9 -55 13 -14 3 -26 2 -26 -2z"/>
<path d="M3127 2785 c-27 -7 -51 -16 -54 -18 -2 -3 1 -25 7 -48 18 -73 18 -73
35 -59 18 15 75 113 75 129 0 13 -1 13 -63 -4z"/>
<path d="M1869 2716 c-2 -2 -3 -381 -1 -840 l2 -837 143 3 142 3 3 678 2 679
-32 26 c-76 62 -196 191 -224 240 -17 29 -32 50 -35 48z"/>
<path d="M3204 2658 c-47 -78 -99 -134 -181 -199 l-63 -51 0 -684 0 -684 145
0 145 0 0 840 c0 462 -2 840 -4 840 -2 0 -21 -28 -42 -62z"/>
<path d="M2188 2544 c-27 -8 -48 -19 -48 -24 0 -10 114 -80 130 -80 5 0 8 6 6
13 -2 6 -10 33 -16 60 -7 26 -15 47 -19 46 -3 0 -27 -7 -53 -15z"/>
<path d="M2840 2500 c-6 -27 -10 -54 -8 -60 4 -12 130 59 135 76 4 11 -66 34
-100 34 -10 0 -19 -18 -27 -50z"/>
<path d="M2505 2430 c-21 -22 -36 -42 -33 -46 11 -11 125 -17 142 -7 14 8 11
14 -22 51 -21 23 -40 42 -43 42 -3 0 -22 -18 -44 -40z"/>
<path d="M2230 1706 l0 -666 145 0 145 0 0 629 0 629 -57 7 c-50 6 -160 37
-215 60 -17 7 -18 -28 -18 -659z"/>
<path d="M2815 2345 c-33 -13 -95 -29 -137 -36 l-78 -13 0 -628 0 -628 145 0
145 0 0 665 c0 366 -3 665 -7 664 -5 0 -35 -11 -68 -24z"/>
</g>
</svg>
