<?xml version="1.0" standalone="no"?>
<!DOCTYPE svg PUBLIC "-//W3C//DTD SVG 20010904//EN"
 "http://www.w3.org/TR/2001/REC-SVG-20010904/DTD/svg10.dtd">
<svg version="1.0" xmlns="http://www.w3.org/2000/svg"
 width="1024.000000pt" height="1024.000000pt" viewBox="0 0 1024.000000 1024.000000"
 preserveAspectRatio="xMidYMid meet">
<metadata>
Created by potrace 1.14, written by Peter Selinger 2001-2017
</metadata>
<g transform="translate(0.000000,1024.000000) scale(0.100000,-0.100000)"
fill="#000000" stroke="none">
<path d="M1680 10233 c-441 -47 -834 -230 -1133 -529 -73 -72 -163 -178 -213
-249 -35 -50 -124 -196 -124 -203 0 -4 -13 -32 -29 -62 -62 -119 -127 -324
-151 -475 -6 -38 -14 -81 -18 -95 -3 -14 -7 -1575 -8 -3470 -2 -3359 -2 -3448
17 -3575 49 -327 166 -597 381 -880 100 -131 264 -280 433 -395 169 -114 490
-243 660 -266 28 -3 52 -7 55 -9 29 -17 600 -20 3555 -20 3013 0 3557 3 3584
19 3 2 29 7 56 11 179 23 457 135 650 260 184 119 308 235 475 442 6 7 35 49
66 95 111 166 219 420 259 608 16 76 19 97 35 225 9 79 8 6919 -2 6950 -3 11
-9 45 -13 75 -12 88 -53 246 -92 350 -131 352 -372 661 -683 876 -56 39 -238
144 -249 144 -4 0 -28 10 -52 23 -38 19 -169 66 -274 97 -52 15 -137 30 -251
45 -91 11 -660 13 -3504 13 -1867 -1 -3411 -3 -3430 -5z"/>
</g>
</svg>
