<?xml version="1.0" standalone="no"?>
<!DOCTYPE svg PUBLIC "-//W3C//DTD SVG 20010904//EN"
 "http://www.w3.org/TR/2001/REC-SVG-20010904/DTD/svg10.dtd">
<svg version="1.0" xmlns="http://www.w3.org/2000/svg"
 width="1024.000000pt" height="1024.000000pt" viewBox="0 0 1024.000000 1024.000000"
 preserveAspectRatio="xMidYMid meet">
<metadata>
Created by potrace 1.14, written by Peter Selinger 2001-2017
</metadata>
<g transform="translate(0.000000,1024.000000) scale(0.100000,-0.100000)"
fill="#000000" stroke="none">
<path d="M3299 10236 c-2 -2 -56 -7 -119 -10 -63 -4 -131 -9 -150 -11 -19 -2
-64 -7 -100 -10 -36 -3 -78 -7 -95 -10 -16 -2 -55 -7 -85 -10 -30 -3 -73 -10
-95 -15 -22 -5 -60 -12 -85 -15 -24 -4 -94 -18 -155 -31 -1269 -280 -2034
-1052 -2304 -2324 -11 -52 -22 -106 -25 -120 -13 -79 -16 -98 -21 -124 -10
-64 -22 -157 -31 -246 -3 -30 -7 -68 -9 -85 -16 -122 -20 -498 -20 -2105 0
-1611 4 -2003 19 -2100 2 -14 7 -54 10 -90 3 -36 8 -76 10 -90 2 -14 7 -50 11
-80 5 -47 43 -259 60 -340 3 -14 7 -36 10 -50 3 -14 12 -50 20 -80 9 -30 18
-64 20 -75 12 -54 85 -278 113 -345 100 -242 159 -361 255 -515 49 -77 168
-240 224 -308 101 -119 315 -317 433 -401 205 -145 397 -253 590 -331 36 -14
74 -30 85 -35 190 -83 649 -197 910 -226 28 -3 61 -7 75 -10 14 -2 54 -6 90
-9 36 -3 74 -8 85 -10 78 -16 507 -20 2095 -20 993 0 1855 3 1915 7 181 12
248 17 280 22 17 3 53 8 80 11 64 7 194 26 220 31 11 3 36 7 55 10 192 31 606
147 744 208 17 8 69 31 116 52 430 189 807 490 1071 854 56 78 106 151 125
185 6 11 30 52 52 92 48 83 102 196 166 346 25 58 84 230 111 322 34 114 35
120 39 142 2 11 11 48 20 84 19 80 43 200 51 259 3 25 8 52 10 60 2 8 7 39 10
69 4 30 8 62 10 71 2 9 6 53 10 96 4 43 9 86 10 96 16 83 20 526 20 2093 0
1813 -2 1994 -31 2210 -2 22 -9 74 -14 115 -10 84 -24 176 -44 280 -11 57 -38
179 -52 235 -9 33 -17 67 -19 75 -18 79 -104 324 -155 445 -270 629 -701 1086
-1295 1375 -313 152 -706 272 -1060 324 -147 22 -237 32 -355 41 -47 4 -101 9
-120 12 -39 7 -3784 16 -3791 9z"/>
</g>
</svg>
